<svg width="360" height="114" viewBox="0 0 360 114" fill="none" xmlns="http://www.w3.org/2000/svg">
<path d="M116 76.48V40.08H131.579C133.762 40.08 135.716 40.6 137.441 41.64C139.201 42.6453 140.592 44.032 141.613 45.8C142.669 47.5333 143.197 49.492 143.197 51.676C143.197 53.9293 142.669 55.9573 141.613 57.76C140.592 59.528 139.201 60.9493 137.441 62.024C135.716 63.064 133.762 63.584 131.579 63.584H123.605V76.48H116ZM123.552 56.772H130.787C132.09 56.772 133.181 56.304 134.061 55.368C134.977 54.3973 135.434 53.2013 135.434 51.78C135.434 50.3587 134.977 49.1973 134.061 48.296C133.181 47.36 132.09 46.892 130.787 46.892H123.552V56.772Z" fill="#8257E5"/>
<path d="M161.661 77C158.809 77 156.275 76.3933 154.057 75.18C151.838 73.932 150.096 72.2333 148.828 70.084C147.561 67.9347 146.927 65.4733 146.927 62.7C146.927 59.9613 147.561 57.5173 148.828 55.368C150.096 53.2187 151.838 51.5373 154.057 50.324C156.275 49.076 158.809 48.452 161.661 48.452C164.443 48.452 166.942 49.076 169.16 50.324C171.378 51.5373 173.121 53.2187 174.389 55.368C175.656 57.5173 176.29 59.9613 176.29 62.7C176.29 65.4733 175.656 67.9347 174.389 70.084C173.121 72.2333 171.378 73.932 169.16 75.18C166.942 76.3933 164.443 77 161.661 77ZM161.661 70.812C163.07 70.812 164.337 70.4653 165.464 69.772C166.59 69.044 167.453 68.0733 168.051 66.86C168.685 65.6467 169.002 64.26 169.002 62.7C169.002 61.14 168.685 59.7533 168.051 58.54C167.453 57.3267 166.59 56.3733 165.464 55.68C164.337 54.9867 163.07 54.64 161.661 54.64C160.218 54.64 158.933 54.9867 157.806 55.68C156.679 56.3733 155.799 57.3267 155.166 58.54C154.532 59.7533 154.215 61.14 154.215 62.7C154.215 64.26 154.532 65.6467 155.166 66.86C155.799 68.0733 156.679 69.044 157.806 69.772C158.933 70.4653 160.218 70.812 161.661 70.812Z" fill="#8257E5"/>
<path d="M193.024 77C190.56 77 188.36 76.3933 186.423 75.18C184.487 73.932 182.955 72.2333 181.829 70.084C180.737 67.9347 180.192 65.4907 180.192 62.752C180.192 59.9787 180.737 57.5173 181.829 55.368C182.955 53.2187 184.487 51.5373 186.423 50.324C188.36 49.076 190.56 48.452 193.024 48.452C194.714 48.452 196.316 48.7813 197.83 49.44C199.379 50.0987 200.629 50.948 201.58 51.988V38H208.815V76.48H201.949L201.844 73.204C200.928 74.2787 199.679 75.18 198.094 75.908C196.51 76.636 194.82 77 193.024 77ZM194.609 71.072C196.756 71.072 198.499 70.3093 199.837 68.784C201.175 67.224 201.844 65.2133 201.844 62.752C201.844 60.256 201.175 58.2453 199.837 56.72C198.499 55.16 196.756 54.38 194.609 54.38C192.461 54.38 190.718 55.16 189.381 56.72C188.043 58.2453 187.374 60.256 187.374 62.752C187.374 65.2133 188.043 67.224 189.381 68.784C190.718 70.3093 192.461 71.072 194.609 71.072Z" fill="#8257E5"/>
<path d="M228.222 77C225.581 77 223.205 76.376 221.092 75.128C219.015 73.88 217.36 72.1813 216.128 70.032C214.931 67.8827 214.333 65.4387 214.333 62.7C214.333 59.996 214.931 57.5693 216.128 55.42C217.36 53.2707 219.015 51.572 221.092 50.324C223.205 49.076 225.581 48.452 228.222 48.452C230.721 48.452 232.992 48.9027 235.034 49.804C237.112 50.7053 238.731 51.9707 239.893 53.6L235.932 58.28C235.193 57.2747 234.172 56.4253 232.869 55.732C231.566 55.004 230.246 54.64 228.908 54.64C227.43 54.64 226.109 55.004 224.948 55.732C223.821 56.4253 222.923 57.3787 222.254 58.592C221.62 59.8053 221.304 61.1747 221.304 62.7C221.304 64.2253 221.638 65.5947 222.307 66.808C222.976 68.0213 223.891 68.992 225.053 69.72C226.215 70.4133 227.518 70.76 228.961 70.76C230.334 70.76 231.602 70.4653 232.763 69.876C233.925 69.252 234.982 68.3853 235.932 67.276L239.893 71.956C238.696 73.4813 237.041 74.712 234.929 75.648C232.816 76.5493 230.581 77 228.222 77Z" fill="#8257E5"/>
<path d="M255.209 77C252.885 77 250.79 76.376 248.924 75.128C247.058 73.88 245.562 72.1813 244.435 70.032C243.344 67.8827 242.798 65.4387 242.798 62.7C242.798 59.892 243.344 57.4307 244.435 55.316C245.562 53.1667 247.076 51.4853 248.977 50.272C250.913 49.0587 253.096 48.452 255.526 48.452C257.497 48.452 259.222 48.8507 260.701 49.648C262.18 50.4107 263.359 51.416 264.239 52.664V49.024H271.422V76.48H264.186V72.788C263.201 74.0013 261.916 75.0067 260.331 75.804C258.782 76.6013 257.075 77 255.209 77ZM257.163 70.812C259.31 70.812 261.053 70.0667 262.391 68.576C263.729 67.0853 264.398 65.1267 264.398 62.7C264.398 60.2733 263.729 58.3147 262.391 56.824C261.053 55.3333 259.31 54.588 257.163 54.588C255.05 54.588 253.325 55.3333 251.987 56.824C250.685 58.3147 250.033 60.2733 250.033 62.7C250.033 65.1267 250.685 67.0853 251.987 68.576C253.325 70.0667 255.05 70.812 257.163 70.812Z" fill="#8257E5"/>
<path d="M288.344 77C285.774 77 283.485 76.584 281.479 75.752C279.472 74.92 277.852 73.7413 276.62 72.216L281.162 68.42C282.218 69.564 283.415 70.396 284.753 70.916C286.091 71.4013 287.446 71.644 288.819 71.644C289.911 71.644 290.791 71.4013 291.46 70.916C292.129 70.4307 292.463 69.7547 292.463 68.888C292.463 68.1253 292.146 67.5187 291.513 67.068C290.879 66.652 289.365 66.132 286.971 65.508C283.415 64.6067 280.898 63.376 279.419 61.816C278.116 60.4293 277.465 58.7133 277.465 56.668C277.465 55.0387 277.958 53.6173 278.944 52.404C279.93 51.156 281.232 50.1853 282.852 49.492C284.471 48.7987 286.232 48.452 288.133 48.452C290.316 48.452 292.375 48.8333 294.312 49.596C296.248 50.3587 297.867 51.3987 299.17 52.716L295.262 56.928C294.276 56.0267 293.132 55.2813 291.829 54.692C290.562 54.068 289.383 53.756 288.291 53.756C285.756 53.756 284.489 54.6227 284.489 56.356C284.524 57.188 284.911 57.8467 285.651 58.332C286.355 58.8173 287.957 59.3893 290.456 60.048C293.801 60.9147 296.16 62.0587 297.533 63.48C298.73 64.6933 299.329 66.3053 299.329 68.316C299.329 69.98 298.836 71.4707 297.85 72.788C296.899 74.1053 295.597 75.1453 293.942 75.908C292.287 76.636 290.421 77 288.344 77Z" fill="#8257E5"/>
<path d="M307.529 76.48V55.42H302.248V49.024H307.529V42.004H314.711V49.024H320.573V55.42H314.711V76.48H307.529Z" fill="#8257E5"/>
<path d="M325.411 76.48V49.024H332.382L332.487 53.548C333.403 52.0573 334.6 50.844 336.078 49.908C337.592 48.9373 339.177 48.452 340.831 48.452C341.465 48.452 342.046 48.504 342.574 48.608C343.137 48.6773 343.613 48.7813 344 48.92L342.046 56.72C341.659 56.512 341.166 56.3387 340.567 56.2C339.969 56.0613 339.37 55.992 338.772 55.992C337.047 55.992 335.586 56.5813 334.388 57.76C333.227 58.904 332.646 60.36 332.646 62.128V76.48H325.411Z" fill="#8257E5"/>
<path d="M101.065 55.9835C101.119 63.1883 99.3303 70.2808 95.8796 76.5479C95.4328 77.362 94.9594 78.1584 94.4596 78.9369C94.2125 79.3326 93.8916 79.6739 93.5155 79.9409C93.1394 80.2079 92.7156 80.3953 92.2687 80.4923C91.8217 80.5893 91.3606 80.5939 90.9119 80.5059C90.4632 80.4179 90.0359 80.239 89.6549 79.9796C89.2738 79.7202 88.9465 79.3855 88.692 78.9948C88.4374 78.6041 88.2607 78.1652 88.172 77.7037C88.0834 77.2421 88.0846 76.767 88.1755 76.3058C88.2664 75.8447 88.4453 75.4068 88.7017 75.0174C91.9951 69.8673 93.8724 63.894 94.134 57.7327C94.3956 51.5713 93.0318 45.452 90.1875 40.0252C87.3432 34.5985 83.1247 30.0671 77.9805 26.9127C72.8362 23.7583 66.9584 22.0988 60.9719 22.1106C49.4648 22.1337 39.2621 28.3569 33.3317 37.6552C29.7865 43.2026 27.9 49.7 27.9062 56.3417C27.9123 62.9833 29.8108 69.477 33.3662 75.0174C33.8703 75.8045 34.0502 76.7656 33.8664 77.6893C33.6826 78.6131 33.1502 79.4237 32.3862 79.943C31.6222 80.4623 30.6892 80.6477 29.7926 80.4583C28.8959 80.269 28.109 79.7204 27.6049 78.9334C23.6626 72.7701 21.3982 65.6297 21.0479 58.2575C20.6976 50.8852 22.2743 43.5512 25.6135 37.0207C28.9528 30.4903 33.9321 25.0027 40.0319 21.1307C46.1317 17.2586 53.1284 15.144 60.292 15.0075C60.5439 15.0022 60.7941 15.0004 61.0443 15.0004C71.6238 14.9779 81.7797 19.2808 89.2829 26.9644C96.786 34.6481 101.023 45.0847 101.065 55.9835V55.9835Z" fill="#494D4B"/>
<path d="M96.6975 72.3651L95.8796 76.5476C95.4327 77.3617 94.9594 78.1581 94.4596 78.9366C94.2125 79.3324 93.8915 79.6736 93.5155 79.9406C93.1394 80.2076 92.7156 80.395 92.2686 80.492C91.8217 80.589 91.3605 80.5936 90.9118 80.5056C90.4632 80.4176 90.0359 80.2387 89.6548 79.9793C89.2738 79.7199 88.9465 79.3852 88.6919 78.9945C88.4374 78.6038 88.2607 78.165 88.172 77.7034C88.0834 77.2418 88.0845 76.7667 88.1755 76.3056C88.2664 75.8445 88.4453 75.4065 88.7017 75.0172C91.0409 71.3701 92.6738 67.2917 93.5106 63.0063C94.8093 64.1271 95.7907 65.5879 96.3516 67.2348C96.9124 68.8818 97.0319 70.654 96.6975 72.3651Z" fill="#494D4B"/>
<path d="M92.6064 30.8238L87.656 35.9236C84.5715 31.6265 80.549 28.1372 75.9135 25.7376C71.278 23.338 66.1596 22.0954 60.9718 22.1103C49.4647 22.1334 39.2621 28.3566 33.3317 37.6549L28.3106 32.4823C31.9308 27.1826 36.7139 22.838 42.271 19.8015C47.8282 16.765 54.0025 15.1224 60.292 15.0072C60.5439 15.0019 60.7941 15.0001 61.0443 15.0001C67.1277 14.9861 73.1339 16.4044 78.604 19.1469C84.0741 21.8893 88.8635 25.8833 92.6064 30.8238V30.8238Z" fill="#8257E5"/>
<path d="M36.885 62.5971L43.1394 94.6498C43.5149 96.5739 45.3334 97.8202 47.2011 97.4334C49.0689 97.0466 50.2787 95.1732 49.9032 93.2491L43.6488 61.1964C43.2733 59.2722 41.4548 58.0259 39.587 58.4127C37.7193 58.7995 36.5095 60.6729 36.885 62.5971Z" fill="#04D361"/>
<path d="M43.0202 93.9267L41.4345 94.2555C39.0783 94.7442 36.6299 94.2871 34.59 92.9777C32.5501 91.6683 31.0729 89.6054 30.4606 87.2111C30.414 87.0262 30.3708 86.8414 30.3346 86.6529L28.0622 75.0224C27.5697 72.4978 28.0704 69.875 29.4542 67.7305C30.838 65.5859 32.9917 64.0951 35.442 63.5857L37.0277 63.2569L39.8091 77.4915L43.0202 93.9267Z" fill="#494D4B"/>
<path d="M43.0203 93.9267L41.4346 94.2555C39.0784 94.7443 36.63 94.2872 34.5901 92.9777C32.5502 91.6683 31.073 89.6055 30.4606 87.2111C33.8119 84.2205 36.9371 80.9713 39.8092 77.4915L43.0203 93.9267Z" fill="#494D4B"/>
<path d="M78.3633 61.1617L72.1088 93.2144C71.7334 95.1386 72.9431 97.012 74.8109 97.3987C76.6787 97.7855 78.4972 96.5393 78.8726 94.6151L85.1271 62.5624C85.5025 60.6382 84.2928 58.7649 82.425 58.3781C80.5572 57.9913 78.7387 59.2375 78.3633 61.1617Z" fill="#04D361"/>
<path d="M94.0057 75.0224L91.7333 86.6529C91.2399 89.1774 89.7933 91.3967 87.7117 92.8224C85.6301 94.2482 83.084 94.7636 80.6334 94.2555L79.0477 93.9266L80.6903 85.5242L85.0402 63.2569L86.6259 63.5857C89.0759 64.0958 91.2297 65.5858 92.615 67.7292C92.8057 68.0246 92.9803 68.3308 93.1378 68.6464C94.1224 70.6083 94.4285 72.8572 94.0057 75.0224V75.0224Z" fill="#494D4B"/>
<path d="M94.0057 75.0225L91.7333 86.653C91.2399 89.1775 89.7933 91.3967 87.7117 92.8225C85.6301 94.2482 83.084 94.7637 80.6334 94.2555L79.0477 93.9267L80.6903 85.5242C85.4174 80.3765 89.5908 74.7177 93.1378 68.6464C94.1224 70.6083 94.4285 72.8573 94.0057 75.0225V75.0225Z" fill="#494D4B"/>
</svg>
